 0
SECTION
 2
HEADER
 9
$ACADVER
 1
AC1009
 0
ENDSEC
 0
SECTION
 2
TABLES
 0
TABLE
 2
LTYPE
 70
1
 0
LTYPE
 2
CONTINUOUS
 70
64
 3
solid line
 72
65
 73
0
 40
0.0
 0
ENDTAB
 0
TABLE
 2
LAYER
 70
6
 0
LAYER
 2
0
 70
0
 62
7
 6
CONTINUOUS
 0
LAYER
 2
SPLINE
 70
64
 62
7
 6
CONTINUOUS
 0
ENDTAB
 0
ENDSEC
 0
SECTION
 2
BLOCKS
 0
ENDSEC
 0
SECTION
 2
ENTITIES
 0
POLYLINE
 8
SPLINE
 66
1
 10
0.0
 20
0.0
 30
0.0
 70
9
 0
VERTEX
 8
SPLINE
 10
1.5494
 20
0.121
 30
0
 70
32
 0
VERTEX
 8
SPLINE
 10
1.5488
 20
0.1219
 30
0
 70
32
 0
VERTEX
 8
SPLINE
 10
1.5402
 20
0.1369
 30
0
 70
32
 0
VERTEX
 8
SPLINE
 10
1.4022
 20
0.3742
 30
0
 70
32
 0
VERTEX
 8
SPLINE
 10
1.3838
 20
0.3998
 30
0
 70
32
 0
VERTEX
 8
SPLINE
 10
1.3625
 20
0.4257
 30
0
 70
32
 0
VERTEX
 8
SPLINE
 10
1.1433
 20
0.6371
 30
0
 70
32
 0
VERTEX
 8
SPLINE
 10
0.7006
 20
1.0226
 30
0
 70
32
 0
VERTEX
 8
SPLINE
 10
0.5079
 20
1.2074
 30
0
 70
32
 0
VERTEX
 8
SPLINE
 10
0.4043
 20
1.3235
 30
0
 70
32
 0
VERTEX
 8
SPLINE
 10
0.3169
 20
1.4304
 30
0
 70
32
 0
VERTEX
 8
SPLINE
 10
0.2985
 20
1.4548
 30
0
 70
32
 0
VERTEX
 8
SPLINE
 10
0.2446
 20
1.5456
 30
0
 70
32
 0
VERTEX
 8
SPLINE
 10
0.2034
 20
1.6257
 30
0
 70
32
 0
VERTEX
 8
SPLINE
 10
0.1679
 20
1.7015
 30
0
 70
32
 0
VERTEX
 8
SPLINE
 10
0.1457
 20
1.7627
 30
0
 70
32
 0
VERTEX
 8
SPLINE
 10
0.1376
 20
1.7911
 30
0
 70
32
 0
VERTEX
 8
SPLINE
 10
0.1301
 20
1.8253
 30
0
 70
32
 0
VERTEX
 8
SPLINE
 10
0.1017
 20
1.9534
 30
0
 70
32
 0
VERTEX
 8
SPLINE
 10
0.0798
 20
2.1619
 30
0
 70
32
 0
VERTEX
 8
SPLINE
 10
0.0837
 20
2.2345
 30
0
 70
32
 0
VERTEX
 8
SPLINE
 10
0.0966
 20
2.3217
 30
0
 70
32
 0
VERTEX
 8
SPLINE
 10
0.1227
 20
2.4312
 30
0
 70
32
 0
VERTEX
 8
SPLINE
 10
0.1506
 20
2.5205
 30
0
 70
32
 0
VERTEX
 8
SPLINE
 10
0.1682
 20
2.5639
 30
0
 70
32
 0
VERTEX
 8
SPLINE
 10
0.197
 20
2.6187
 30
0
 70
32
 0
VERTEX
 8
SPLINE
 10
0.2397
 20
2.684
 30
0
 70
32
 0
VERTEX
 8
SPLINE
 10
0.3142
 20
2.7777
 30
0
 70
32
 0
VERTEX
 8
SPLINE
 10
0.4183
 20
2.8864
 30
0
 70
32
 0
VERTEX
 8
SPLINE
 10
0.4735
 20
2.9367
 30
0
 70
32
 0
VERTEX
 8
SPLINE
 10
0.5191
 20
2.9742
 30
0
 70
32
 0
VERTEX
 8
SPLINE
 10
0.5657
 20
3.0066
 30
0
 70
32
 0
VERTEX
 8
SPLINE
 10
0.6154
 20
3.0348
 30
0
 70
32
 0
VERTEX
 8
SPLINE
 10
0.6743
 20
3.0614
 30
0
 70
32
 0
VERTEX
 8
SPLINE
 10
0.7423
 20
3.0848
 30
0
 70
32
 0
VERTEX
 8
SPLINE
 10
0.7909
 20
3.0973
 30
0
 70
32
 0
VERTEX
 8
SPLINE
 10
0.8469
 20
3.1076
 30
0
 70
32
 0
VERTEX
 8
SPLINE
 10
0.9188
 20
3.1148
 30
0
 70
32
 0
VERTEX
 8
SPLINE
 10
0.9934
 20
3.1155
 30
0
 70
32
 0
VERTEX
 8
SPLINE
 10
1.0689
 20
3.1096
 30
0
 70
32
 0
VERTEX
 8
SPLINE
 10
1.1436
 20
3.0969
 30
0
 70
32
 0
VERTEX
 8
SPLINE
 10
1.1801
 20
3.0881
 30
0
 70
32
 0
VERTEX
 8
SPLINE
 10
1.2157
 20
3.0775
 30
0
 70
32
 0
VERTEX
 8
SPLINE
 10
1.2516
 20
3.0637
 30
0
 70
32
 0
VERTEX
 8
SPLINE
 10
1.3031
 20
3.038
 30
0
 70
32
 0
VERTEX
 8
SPLINE
 10
1.4352
 20
2.9514
 30
0
 70
32
 0
VERTEX
 8
SPLINE
 10
1.5229
 20
2.8843
 30
0
 70
32
 0
VERTEX
 8
SPLINE
 10
1.552
 20
2.8625
 30
0
 70
32
 0
VERTEX
 8
SPLINE
 10
1.5706
 20
2.8411
 30
0
 70
32
 0
VERTEX
 8
SPLINE
 10
1.6252
 20
2.7734
 30
0
 70
32
 0
VERTEX
 8
SPLINE
 10
1.6318
 20
2.7645
 30
0
 70
32
 0
VERTEX
 8
SPLINE
 10
1.6367
 20
2.7564
 30
0
 70
32
 0
VERTEX
 8
SPLINE
 10
1.6416
 20
2.7464
 30
0
 70
32
 0
VERTEX
 8
SPLINE
 10
1.6455
 20
2.7379
 30
0
 70
32
 0
VERTEX
 8
SPLINE
 10
1.6463
 20
2.7367
 30
0
 70
32
 0
VERTEX
 8
SPLINE
 10
1.6467
 20
2.7363
 30
0
 70
32
 0
VERTEX
 8
SPLINE
 10
1.6471
 20
2.736
 30
0
 70
32
 0
VERTEX
 8
SPLINE
 10
1.6476
 20
2.7358
 30
0
 70
32
 0
VERTEX
 8
SPLINE
 10
1.6481
 20
2.7358
 30
0
 70
32
 0
VERTEX
 8
SPLINE
 10
1.6486
 20
2.7359
 30
0
 70
32
 0
VERTEX
 8
SPLINE
 10
1.6492
 20
2.736
 30
0
 70
32
 0
VERTEX
 8
SPLINE
 10
1.6498
 20
2.7364
 30
0
 70
32
 0
VERTEX
 8
SPLINE
 10
1.6504
 20
2.7368
 30
0
 70
32
 0
VERTEX
 8
SPLINE
 10
1.6519
 20
2.7381
 30
0
 70
32
 0
VERTEX
 8
SPLINE
 10
1.661
 20
2.7489
 30
0
 70
32
 0
VERTEX
 8
SPLINE
 10
1.6776
 20
2.7699
 30
0
 70
32
 0
VERTEX
 8
SPLINE
 10
1.7642
 20
2.8852
 30
0
 70
32
 0
VERTEX
 8
SPLINE
 10
1.7727
 20
2.8932
 30
0
 70
32
 0
VERTEX
 8
SPLINE
 10
1.7835
 20
2.9023
 30
0
 70
32
 0
VERTEX
 8
SPLINE
 10
1.8654
 20
2.9637
 30
0
 70
32
 0
VERTEX
 8
SPLINE
 10
1.9264
 20
3.0001
 30
0
 70
32
 0
VERTEX
 8
SPLINE
 10
2.0072
 20
3.0396
 30
0
 70
32
 0
VERTEX
 8
SPLINE
 10
2.0975
 20
3.076
 30
0
 70
32
 0
VERTEX
 8
SPLINE
 10
2.1652
 20
3.0962
 30
0
 70
32
 0
VERTEX
 8
SPLINE
 10
2.2203
 20
3.1072
 30
0
 70
32
 0
VERTEX
 8
SPLINE
 10
2.2703
 20
3.1127
 30
0
 70
32
 0
VERTEX
 8
SPLINE
 10
2.3223
 20
3.1142
 30
0
 70
32
 0
VERTEX
 8
SPLINE
 10
2.3749
 20
3.1115
 30
0
 70
32
 0
VERTEX
 8
SPLINE
 10
2.427
 20
3.1041
 30
0
 70
32
 0
VERTEX
 8
SPLINE
 10
2.4796
 20
3.0916
 30
0
 70
32
 0
VERTEX
 8
SPLINE
 10
2.541
 20
3.0712
 30
0
 70
32
 0
VERTEX
 8
SPLINE
 10
2.5986
 20
3.0471
 30
0
 70
32
 0
VERTEX
 8
SPLINE
 10
2.6684
 20
3.0128
 30
0
 70
32
 0
VERTEX
 8
SPLINE
 10
2.7437
 20
2.9696
 30
0
 70
32
 0
VERTEX
 8
SPLINE
 10
2.7898
 20
2.9371
 30
0
 70
32
 0
VERTEX
 8
SPLINE
 10
2.8546
 20
2.8794
 30
0
 70
32
 0
VERTEX
 8
SPLINE
 10
2.9299
 20
2.8053
 30
0
 70
32
 0
VERTEX
 8
SPLINE
 10
2.9529
 20
2.7809
 30
0
 70
32
 0
VERTEX
 8
SPLINE
 10
2.9786
 20
2.7478
 30
0
 70
32
 0
VERTEX
 8
SPLINE
 10
3.0051
 20
2.7057
 30
0
 70
32
 0
VERTEX
 8
SPLINE
 10
3.0338
 20
2.6485
 30
0
 70
32
 0
VERTEX
 8
SPLINE
 10
3.0671
 20
2.5639
 30
0
 70
32
 0
VERTEX
 8
SPLINE
 10
3.0886
 20
2.5037
 30
0
 70
32
 0
VERTEX
 8
SPLINE
 10
3.0922
 20
2.4937
 30
0
 70
32
 0
VERTEX
 8
SPLINE
 10
3.1034
 20
2.4479
 30
0
 70
32
 0
VERTEX
 8
SPLINE
 10
3.1322
 20
2.2828
 30
0
 70
32
 0
VERTEX
 8
SPLINE
 10
3.1485
 20
2.1506
 30
0
 70
32
 0
VERTEX
 8
SPLINE
 10
3.1443
 20
1.9941
 30
0
 70
32
 0
VERTEX
 8
SPLINE
 10
3.1366
 20
1.8966
 30
0
 70
32
 0
VERTEX
 8
SPLINE
 10
3.124
 20
1.8085
 30
0
 70
32
 0
VERTEX
 8
SPLINE
 10
3.1118
 20
1.7606
 30
0
 70
32
 0
VERTEX
 8
SPLINE
 10
3.0828
 20
1.679
 30
0
 70
32
 0
VERTEX
 8
SPLINE
 10
3.0296
 20
1.5619
 30
0
 70
32
 0
VERTEX
 8
SPLINE
 10
3.0101
 20
1.5254
 30
0
 70
32
 0
VERTEX
 8
SPLINE
 10
2.9931
 20
1.4976
 30
0
 70
32
 0
VERTEX
 8
SPLINE
 10
2.9378
 20
1.4164
 30
0
 70
32
 0
VERTEX
 8
SPLINE
 10
2.8786
 20
1.3383
 30
0
 70
32
 0
VERTEX
 8
SPLINE
 10
2.6648
 20
1.1108
 30
0
 70
32
 0
VERTEX
 8
SPLINE
 10
2.5275
 20
0.9959
 30
0
 70
32
 0
VERTEX
 8
SPLINE
 10
2.3164
 20
0.8294
 30
0
 70
32
 0
VERTEX
 8
SPLINE
 10
2.1789
 20
0.7303
 30
0
 70
32
 0
VERTEX
 8
SPLINE
 10
2.023
 20
0.6253
 30
0
 70
32
 0
VERTEX
 8
SPLINE
 10
1.9604
 20
0.5769
 30
0
 70
32
 0
VERTEX
 8
SPLINE
 10
1.8628
 20
0.4858
 30
0
 70
32
 0
VERTEX
 8
SPLINE
 10
1.779
 20
0.4018
 30
0
 70
32
 0
VERTEX
 8
SPLINE
 10
1.7038
 20
0.3137
 30
0
 70
32
 0
VERTEX
 8
SPLINE
 10
1.6359
 20
0.2291
 30
0
 70
32
 0
VERTEX
 8
SPLINE
 10
1.6135
 20
0.203
 30
0
 70
32
 0
VERTEX
 8
SPLINE
 10
1.5569
 20
0.1231
 30
0
 70
32
 0
VERTEX
 8
SPLINE
 10
1.5551
 20
0.1214
 30
0
 70
32
 0
VERTEX
 8
SPLINE
 10
1.5542
 20
0.1208
 30
0
 70
32
 0
VERTEX
 8
SPLINE
 10
1.5534
 20
0.1203
 30
0
 70
32
 0
VERTEX
 8
SPLINE
 10
1.5526
 20
0.12
 30
0
 70
32
 0
VERTEX
 8
SPLINE
 10
1.5519
 20
0.1199
 30
0
 70
32
 0
VERTEX
 8
SPLINE
 10
1.5512
 20
0.1199
 30
0
 70
32
 0
VERTEX
 8
SPLINE
 10
1.5506
 20
0.1201
 30
0
 70
32
 0
VERTEX
 8
SPLINE
 10
1.55
 20
0.1205
 30
0
 70
32
 0
SEQEND
 0
ENDSEC
 0
EOF
